<svg width="454" height="492" viewBox="0 0 454 492" fill="none" xmlns="http://www.w3.org/2000/svg">
<path d="M160.176 105.748C95.8628 94.0383 45.0121 106.298 24.746 141.386C9.62307 167.57 13.9402 202.292 35.2236 239.406C35.6541 240.158 36.2287 240.817 36.9144 241.347C37.6002 241.877 38.3836 242.266 39.2199 242.493C40.0562 242.72 40.9291 242.779 41.7885 242.669C42.648 242.558 43.4772 242.279 44.2288 241.848C45.7467 240.977 46.8566 239.54 47.3147 237.852C47.7728 236.163 47.5415 234.362 46.6718 232.844C27.4979 199.416 23.7611 169.451 36.1697 147.979C53.0027 118.829 98.3549 107.895 157.808 118.722C158.882 118.934 159.993 118.876 161.039 118.552C162.086 118.228 163.035 117.648 163.802 116.866C164.568 116.083 165.128 115.122 165.43 114.07C165.732 113.017 165.767 111.905 165.532 110.836C165.248 109.55 164.586 108.378 163.63 107.471C162.674 106.565 161.469 105.965 160.169 105.75L160.176 105.748ZM68.6673 284.513C94.6698 313.084 128.455 339.88 166.985 362.122C260.273 415.968 359.588 430.361 408.532 396.995C409.942 395.996 410.903 394.483 411.209 392.783C411.515 391.082 411.141 389.33 410.167 387.902C409.194 386.474 407.699 385.486 406.004 385.148C404.309 384.811 402.55 385.153 401.104 386.099C357.296 415.962 262.955 402.289 173.581 350.701C136.199 329.123 103.486 303.178 78.4249 275.642C77.5534 274.654 76.4059 273.948 75.1302 273.618C73.8545 273.287 72.5089 273.345 71.2667 273.785C70.2341 274.152 69.3092 274.77 68.5755 275.584C67.8419 276.398 67.3226 277.381 67.0646 278.446C66.8066 279.511 66.8181 280.623 67.0979 281.682C67.3777 282.742 67.9171 283.714 68.6673 284.513V284.513Z" fill="#2DD0ED"/>
<path d="M392.925 276.493C435.034 226.761 449.739 176.738 429.517 141.719C414.636 115.952 383.174 102.348 341.367 101.805C339.618 101.783 337.932 102.455 336.679 103.675C335.425 104.895 334.708 106.562 334.683 108.31C334.664 109.615 335.033 110.895 335.743 111.99C336.454 113.084 337.474 113.942 338.673 114.456C339.469 114.798 340.325 114.981 341.191 114.992C378.793 115.478 405.901 127.201 418.095 148.313C434.889 177.401 421.78 222.009 382.858 267.976C382.279 268.634 381.836 269.4 381.557 270.231C381.277 271.062 381.167 271.94 381.231 272.814C381.295 273.689 381.534 274.541 381.932 275.322C382.33 276.103 382.88 276.797 383.55 277.362C384.219 277.927 384.995 278.353 385.831 278.616C386.667 278.878 387.547 278.972 388.419 278.891C389.292 278.81 390.14 278.556 390.913 278.144C391.687 277.733 392.37 277.171 392.925 276.493V276.493ZM284.704 107.945C246.627 116.102 206.103 132.047 167.186 154.509C70.8764 210.098 8.05267 292.059 16.7813 351.495C16.8899 352.367 17.1714 353.207 17.6095 353.968C18.0475 354.729 18.6331 355.395 19.3321 355.927C20.031 356.459 20.8292 356.846 21.6796 357.065C22.5301 357.284 23.4158 357.331 24.2847 357.203C25.1537 357.075 25.9883 356.775 26.7397 356.321C27.4911 355.866 28.1441 355.266 28.6604 354.556C29.1767 353.846 29.5458 353.039 29.7462 352.184C29.9465 351.33 29.9741 350.443 29.8272 349.578C22.0834 296.81 81.6305 219.113 173.776 165.93C211.53 144.137 250.774 128.703 287.468 120.834C289.127 120.418 290.558 119.374 291.462 117.923C292.365 116.471 292.67 114.726 292.311 113.055C291.953 111.384 290.959 109.917 289.54 108.963C288.121 108.01 286.387 107.645 284.704 107.945Z" fill="#2DD0ED"/>
<path d="M128.681 392.698C150.708 454.155 186.721 492 227.227 492C256.764 492 284.092 471.872 305.405 436.431C305.883 435.688 306.207 434.858 306.358 433.988C306.509 433.118 306.484 432.227 306.284 431.367C306.034 430.289 305.517 429.292 304.781 428.467C304.044 427.642 303.112 427.015 302.07 426.645C301.027 426.274 299.908 426.172 298.816 426.348C297.724 426.523 296.693 426.971 295.82 427.649C295.122 428.19 294.54 428.865 294.108 429.635C274.952 461.487 251.424 478.819 227.227 478.819C193.587 478.819 161.456 445.063 141.102 388.251C140.823 387.419 140.381 386.65 139.801 385.991C139.222 385.332 138.517 384.794 137.728 384.41C136.938 384.027 136.08 383.806 135.203 383.758C134.327 383.711 133.45 383.84 132.624 384.137C131.798 384.433 131.039 384.892 130.392 385.485C129.746 386.078 129.223 386.794 128.857 387.591C128.49 388.388 128.285 389.25 128.256 390.127C128.227 391.004 128.374 391.879 128.687 392.698H128.681ZM329.798 380.672C341.196 344.266 347.313 302.256 347.313 258.48C347.313 149.26 309.079 55.1011 254.611 30.9224C253.02 30.253 251.229 30.2343 249.623 30.8704C248.018 31.5066 246.726 32.7467 246.025 34.3246C245.324 35.9025 245.271 37.6922 245.875 39.3094C246.48 40.9265 247.695 42.2421 249.259 42.9736C297.837 64.5407 334.128 153.897 334.128 258.48C334.128 300.944 328.196 341.629 317.214 376.736C316.93 377.568 316.815 378.449 316.878 379.326C316.94 380.204 317.177 381.06 317.576 381.844C318.176 383.025 319.118 383.998 320.279 384.637C321.441 385.275 322.768 385.549 324.087 385.422C325.406 385.296 326.656 384.775 327.675 383.927C328.694 383.08 329.434 381.946 329.798 380.672V380.672ZM453.999 374.217C454.026 370.057 453.229 365.932 451.655 362.08C450.08 358.228 447.76 354.726 444.826 351.775C441.893 348.823 438.404 346.481 434.562 344.882C430.719 343.284 426.598 342.461 422.436 342.461C418.274 342.461 414.154 343.284 410.311 344.883C406.468 346.481 402.98 348.824 400.047 351.775C397.113 354.727 394.793 358.229 393.219 362.081C391.644 365.933 390.848 370.058 390.875 374.219C390.928 382.552 394.277 390.526 400.19 396.4C406.104 402.274 414.102 405.571 422.438 405.571C430.774 405.57 438.771 402.273 444.684 396.399C450.598 390.525 453.946 382.551 453.999 374.217ZM440.809 374.217C440.808 379.088 438.872 383.76 435.426 387.204C431.981 390.648 427.309 392.584 422.436 392.585C418.803 392.585 415.251 391.507 412.23 389.489C409.209 387.471 406.855 384.602 405.465 381.246C404.074 377.89 403.711 374.198 404.419 370.635C405.128 367.073 406.878 363.8 409.447 361.232C412.016 358.663 415.29 356.914 418.853 356.205C422.417 355.497 426.11 355.86 429.467 357.25C432.824 358.64 435.693 360.994 437.712 364.014C439.731 367.034 440.808 370.585 440.809 374.217V374.217ZM31.5631 405.772C35.7081 405.772 39.8127 404.956 43.6423 403.371C47.472 401.785 50.9517 399.461 53.8827 396.531C56.8137 393.601 59.1386 390.122 60.7246 386.293C62.3106 382.465 63.1266 378.361 63.1261 374.217C63.1265 370.073 62.3103 365.97 60.7241 362.141C59.1379 358.313 56.8129 354.834 53.8818 351.904C50.9507 348.973 47.4709 346.649 43.6412 345.064C39.8115 343.478 35.7069 342.662 31.5618 342.663C27.4169 342.663 23.3125 343.479 19.4831 345.064C15.6537 346.65 12.1742 348.974 9.24339 351.905C6.31256 354.835 3.98777 358.313 2.40178 362.142C0.815789 365.97 -0.000339408 370.073 1.05892e-07 374.217C-0.000339427 378.361 0.815832 382.465 2.4019 386.293C3.98798 390.122 6.31288 393.6 9.24385 396.53C12.1748 399.461 15.6544 401.785 19.484 403.371C23.3136 404.956 27.418 405.772 31.5631 405.772V405.772ZM31.5631 392.585C26.6894 392.585 22.0153 390.649 18.569 387.204C15.1228 383.759 13.1867 379.086 13.1867 374.213C13.1867 369.341 15.1228 364.668 18.569 361.223C22.0153 357.778 26.6894 355.842 31.5631 355.842C36.4368 355.842 41.1109 357.778 44.5571 361.223C48.0033 364.668 49.9394 369.341 49.9394 374.213C49.9394 379.086 48.0033 383.759 44.5571 387.204C41.1109 390.649 36.4368 392.585 31.5631 392.585V392.585Z" fill="#2DD0ED"/>
<path d="M227.227 63.109C233.47 63.1095 239.573 61.259 244.764 57.7915C249.954 54.324 253.999 49.3953 256.388 43.6289C258.373 38.8348 259.145 33.6252 258.636 28.4616C258.126 23.298 256.351 18.3395 253.468 14.0253C250.584 9.71111 246.681 6.17424 242.104 3.72785C237.527 1.28147 232.418 0.00106543 227.227 4.55542e-07C220.985 -0.00105986 214.882 1.8489 209.69 5.31587C204.499 8.78285 200.453 13.7111 198.064 19.4772C195.675 25.2433 195.05 31.5883 196.268 37.7095C197.487 43.8307 200.494 49.4532 204.909 53.8658C207.84 56.7959 211.319 59.1202 215.149 60.706C218.978 62.2917 223.083 63.1078 227.227 63.1077V63.109ZM227.227 49.9207C223.594 49.9202 220.042 48.8429 217.021 46.8248C214 44.8068 211.645 41.9386 210.254 38.5828C209.329 36.3546 208.854 33.966 208.854 31.5538C208.854 29.1416 209.329 26.7531 210.254 24.5249C211.176 22.2964 212.529 20.2715 214.235 18.566C215.941 16.8605 217.967 15.5078 220.196 14.5852C222.706 13.5458 225.416 13.0758 228.129 13.2092C230.843 13.3425 233.493 14.0758 235.89 15.3563C238.286 16.6367 240.368 18.4325 241.986 20.6142C243.605 22.796 244.719 25.3093 245.249 27.9734C245.779 30.6375 245.712 33.3859 245.052 36.0207C244.392 38.6556 243.155 41.1113 241.431 43.2109C239.708 45.3106 237.54 47.002 235.084 48.1634C232.628 49.3247 229.944 49.9271 227.227 49.9271V49.9207ZM232.049 280.802C226.128 282.08 219.941 280.955 214.85 277.674C211.052 275.227 208.066 271.709 206.268 267.565C204.471 263.422 203.943 258.838 204.752 254.394C205.561 249.95 207.67 245.846 210.812 242.601C213.954 239.355 217.989 237.115 222.405 236.162C228.285 234.987 234.392 236.171 239.407 239.458C244.422 242.745 247.943 247.872 249.21 253.732C250.475 259.592 249.385 265.714 246.174 270.778C242.963 275.841 237.89 279.439 232.049 280.796V280.802Z" fill="#2DD0ED"/>
</svg>
