<svg width="493" height="493" viewBox="0 0 493 493" fill="none" xmlns="http://www.w3.org/2000/svg">
<path d="M152.906 302.283V194.422H158.756V211.388C159.447 210.636 160.085 209.837 160.666 208.997C165.552 198.859 175.859 192.461 187.11 192.587C200.45 192.189 211.29 197.127 217.66 208.997C221.713 216.371 223.944 224.607 224.165 233.019C224.387 241.431 222.593 249.773 218.933 257.35C212.998 270.652 198.339 277.266 182.645 274.837C177.761 274.421 173.059 272.79 168.968 270.09C164.877 267.39 161.527 263.709 159.224 259.382V302.278L152.906 302.283ZM158.756 232.577L160.067 245.242C162.379 259.658 170.902 268.176 184.283 269.777C190.567 270.81 197.015 269.632 202.528 266.444C208.04 263.255 212.277 258.253 214.514 252.291C219.719 239.888 219.335 225.846 213.485 213.733C211.096 208.389 207.033 203.967 201.91 201.135C196.786 198.304 190.88 197.217 185.084 198.04C179.643 198.436 174.461 200.516 170.257 203.992C166.053 207.468 163.036 212.166 161.625 217.436C160.379 222.422 159.421 227.476 158.756 232.572V232.577ZM343.625 247.236C342.737 254.83 339.122 261.844 333.451 266.973C327.78 272.101 320.44 274.996 312.794 275.117C288.26 276.353 276.746 260.06 274.916 241.259C273.643 231.049 275.3 220.687 279.694 211.384C282.752 205.001 287.763 199.758 294 196.414C300.238 193.07 307.378 191.799 314.386 192.784C321.048 193.35 327.364 195.997 332.439 200.351C337.514 204.704 341.092 210.544 342.665 217.042C343.911 222.962 344.829 228.947 345.413 234.969H280.977C279.783 252.015 288.943 265.719 301.926 269.024C318.097 273.002 331.919 265.995 336.936 250.62C338.05 246.674 340.081 246.117 343.667 247.236H343.625ZM280.93 229.511H338.565C338.205 211.351 326.897 198.152 311.559 198.002C294.241 197.722 281.683 210.392 280.93 229.511ZM355.536 247.634H361.186C361.393 251.796 362.745 255.82 365.092 259.263C367.438 262.707 370.69 265.436 374.487 267.151C379.256 269.297 384.448 270.34 389.675 270.203C394.903 270.065 400.032 268.75 404.681 266.356C407.215 265.215 409.338 263.323 410.763 260.937C412.188 258.55 412.845 255.784 412.647 253.012C412.793 250.338 412.063 247.69 410.568 245.468C409.073 243.247 406.895 241.574 404.363 240.702C398.147 238.39 391.538 237.117 385.206 235.086C378.616 233.209 372.173 230.854 365.927 228.037C355.724 223.057 355.092 203.661 366.643 197.52C372.558 194.183 379.214 192.379 386.005 192.275C392.795 192.17 399.504 193.767 405.519 196.921C412.979 201.04 417.103 209.357 415.877 217.796H411.032C411.032 217.562 410.592 217.356 410.592 217.117C409.993 201.672 397.01 196.842 383.071 198.199C378.859 198.667 374.867 199.94 371.122 201.822C368.871 202.85 366.996 204.552 365.755 206.692C364.514 208.833 363.969 211.307 364.195 213.771C364.2 216.237 364.968 218.641 366.395 220.652C367.821 222.664 369.836 224.184 372.161 225.004C378.246 227.236 384.705 228.669 391 230.419L406.212 234.398C409.669 235.532 412.7 237.69 414.905 240.585C417.11 243.48 418.384 246.976 418.559 250.611C419.775 258.778 415.61 266.805 408.243 270.526C394.941 278.052 373.032 276.063 363.273 266.548C358.279 261.525 355.494 254.706 355.55 247.629L355.536 247.634ZM490.24 217.801H484.941C484.941 217.085 484.661 216.397 484.581 215.849C484.496 211.877 483.049 208.056 480.481 205.025C477.914 201.994 474.382 199.937 470.479 199.201C463.115 197.089 455.261 197.467 448.134 200.277C445.317 201.083 442.835 202.78 441.062 205.114C439.289 207.447 438.318 210.292 438.296 213.223C438.195 216.101 439.091 218.925 440.833 221.219C442.574 223.512 445.054 225.133 447.853 225.809L472.07 232.025C474.689 232.653 477.268 233.437 479.793 234.374C487.516 237.182 492.758 244.353 492.992 252.548C493.108 256.56 492.007 260.513 489.835 263.887C487.664 267.262 484.522 269.901 480.823 271.457C475.202 274.011 469.11 275.361 462.937 275.423C456.764 275.486 450.646 274.257 444.975 271.818C440.311 269.807 436.376 266.415 433.698 262.1C431.02 257.784 429.729 252.752 429.998 247.681H435.174C437.121 257.065 443.566 264.881 452.408 268.579C461.249 272.276 471.345 271.368 479.386 266.164C481.798 264.909 483.801 262.989 485.156 260.632C486.512 258.275 487.163 255.578 487.034 252.862C487.154 250.186 486.398 247.545 484.881 245.338C483.364 243.131 481.168 241.478 478.627 240.632C472.412 238.32 465.803 237.089 459.47 235.015C452.844 233.168 446.361 230.839 440.075 228.046C430.115 223.146 429.319 203.909 440.674 197.773C446.662 194.295 453.448 192.427 460.372 192.35C467.296 192.273 474.122 193.99 480.186 197.333C483.654 199.403 486.446 202.437 488.221 206.065C489.996 209.693 490.678 213.759 490.184 217.768L490.24 217.801ZM143.278 273.17C141.192 273.959 138.89 273.957 136.806 273.164C134.722 272.372 133 270.844 131.965 268.869L111.371 240.389L108.385 236.41L84.4868 268.911C83.5127 270.801 81.8839 272.272 79.9046 273.049C77.9253 273.826 75.7308 273.856 73.7311 273.133L104.519 231.828L75.8748 194.506C80.1246 192.971 84.8612 194.637 87.2249 198.484L108.568 227.316L130.037 198.597C131.018 196.739 132.648 195.307 134.617 194.572C136.585 193.838 138.755 193.853 140.713 194.614L129.597 209.362L114.54 228.959C114.122 229.332 113.788 229.789 113.559 230.301C113.33 230.812 113.211 231.366 113.211 231.926C113.211 232.487 113.33 233.041 113.559 233.552C113.788 234.063 114.122 234.52 114.54 234.894L143.217 273.17H143.278ZM274.003 194.108V199.725C269.974 199.461 265.935 200.044 262.146 201.437C258.357 202.831 254.902 205.003 252.004 207.814C249.107 210.626 246.831 214.013 245.323 217.758C243.816 221.504 243.11 225.523 243.252 229.558V273.372H237.556V194.459H243.173V210.63C250.062 198.835 260.696 194.459 274.04 194.141L274.003 194.108ZM0.00936079 231.313L2.51808 218.924C9.4077 194.427 37.4904 184.232 56.8113 199.407C68.1239 208.29 70.9463 220.876 70.394 235.057H6.66028C5.63058 260.388 23.9077 275.684 47.2866 267.877C54.9906 265.069 60.7897 258.666 62.6993 250.709C63.9349 246.731 65.9756 246.047 69.7106 247.199C69.0877 252.048 67.3733 256.693 64.6964 260.785C62.0196 264.876 58.4499 268.308 54.2558 270.821C47.3266 274.61 39.3767 276.112 31.5428 275.111C23.7088 274.109 16.392 270.657 10.6387 265.246C4.94724 258.848 1.51179 250.76 0.842481 242.219C0.842481 240.814 0.374436 239.504 0.0468044 238.24C0.0156015 235.878 0 233.569 0 231.313H0.00936079ZM6.73985 229.6H64.3749C64.0145 211.239 52.4257 198.213 36.9709 198.091C19.7655 197.857 7.45596 210.597 6.69772 229.521L6.73985 229.6Z" fill="black"/>
</svg>
