<svg width="511" height="527" viewBox="0 0 511 527" fill="none" xmlns="http://www.w3.org/2000/svg">
<path d="M510.712 119.006C510.901 119.708 510.998 120.431 511 121.157V234.073C511 235.522 510.618 236.945 509.891 238.2C509.165 239.454 508.12 240.494 506.863 241.215L412.091 295.779V403.929C412.091 406.873 410.527 409.589 407.975 411.071L210.147 524.954C209.694 525.211 209.2 525.376 208.706 525.551C208.521 525.613 208.346 525.726 208.15 525.777C206.767 526.142 205.314 526.142 203.931 525.777C203.704 525.716 203.498 525.592 203.282 525.51C202.83 525.345 202.356 525.201 201.924 524.954L4.13707 411.071C2.88059 410.35 1.83658 409.309 1.11026 408.055C0.383949 406.802 0.000995566 405.378 0 403.929L0 65.1833C0 64.4423 0.102912 63.7219 0.288154 63.0221C0.349901 62.7854 0.493978 62.5693 0.576308 62.3326C0.730676 61.9004 0.874753 61.4579 1.10116 61.0565C1.25553 60.789 1.48193 60.5728 1.66718 60.3258C1.90387 59.9965 2.11999 59.6569 2.39785 59.3688C2.63455 59.1321 2.94329 58.9571 3.21086 58.7513C3.5093 58.5043 3.77688 58.2367 4.11649 58.0412H4.12678L103.025 1.09984C104.278 0.37925 105.697 0 107.142 0C108.587 0 110.006 0.37925 111.258 1.09984L210.157 58.0412H210.177C210.507 58.247 210.785 58.5043 211.083 58.741C211.351 58.9468 211.649 59.1321 211.886 59.3585C212.174 59.6569 212.38 59.9965 212.627 60.3258C212.802 60.5728 213.038 60.789 213.183 61.0565C213.419 61.4682 213.553 61.9004 213.718 62.3326C213.8 62.5693 213.944 62.7854 214.006 63.0324C214.195 63.7337 214.292 64.4568 214.294 65.1833V276.761L296.706 229.308V121.147C296.706 120.427 296.809 119.696 296.994 119.006C297.066 118.759 297.2 118.543 297.282 118.307C297.447 117.874 297.591 117.432 297.817 117.03C297.972 116.763 298.198 116.547 298.373 116.3C298.62 115.971 298.826 115.631 299.114 115.343C299.351 115.106 299.649 114.931 299.917 114.725C300.226 114.478 300.493 114.211 300.823 114.015H300.833L399.742 57.0738C400.994 56.3522 402.413 55.9724 403.858 55.9724C405.303 55.9724 406.723 56.3522 407.975 57.0738L506.873 114.015C507.223 114.221 507.491 114.478 507.799 114.715C508.057 114.921 508.355 115.106 508.592 115.332C508.88 115.631 509.086 115.971 509.333 116.3C509.518 116.547 509.744 116.763 509.889 117.03C510.125 117.432 510.259 117.874 510.424 118.307C510.516 118.543 510.65 118.759 510.712 119.006V119.006ZM494.513 229.308V135.411L459.904 155.334L412.091 182.863V276.761L494.524 229.308H494.513ZM395.615 399.164V305.206L348.584 332.066L214.284 408.715V503.559L395.615 399.164ZM16.4865 79.4367V399.164L197.797 503.548V408.725L103.077 355.118L103.046 355.097L103.005 355.077C102.686 354.892 102.418 354.624 102.12 354.398C101.862 354.192 101.564 354.027 101.338 353.801L101.317 353.77C101.049 353.513 100.864 353.194 100.638 352.905C100.432 352.628 100.185 352.391 100.02 352.103L100.01 352.072C99.8248 351.763 99.7116 351.393 99.5778 351.043C99.444 350.734 99.2691 350.446 99.1867 350.116V350.106C99.0838 349.715 99.0632 349.303 99.0221 348.902C98.9809 348.593 98.8986 348.285 98.8986 347.976V126.889L51.0959 99.3502L16.4865 79.4469V79.4367ZM107.152 17.751L24.7504 65.1833L107.132 112.616L189.523 65.173L107.132 17.751H107.152ZM150.005 313.768L197.807 286.249V79.4367L163.198 99.3605L115.385 126.889V333.702L150.005 313.768ZM403.858 73.725L321.467 121.157L403.858 168.59L486.239 121.147L403.858 73.725ZM395.615 182.863L347.802 155.334L313.193 135.411V229.308L360.995 256.827L395.615 276.761V182.863ZM206.03 394.461L326.88 325.469L387.289 290.993L304.96 243.592L210.167 298.166L123.772 347.904L206.03 394.461Z" fill="#FF2D20"/>
</svg>
