<svg width="512" height="512" viewBox="0 0 512 512" fill="none" xmlns="http://www.w3.org/2000/svg">
<path d="M277.999 396.709C277.763 393.789 277.623 391.909 277.623 391.909C277.623 391.909 268.799 332.353 258.279 314.573C256.623 311.745 258.451 300.197 263.107 283.053C265.827 287.729 277.267 307.821 279.579 314.293C282.171 321.589 282.699 323.681 282.699 323.681C282.699 323.681 276.419 291.353 266.123 272.493C268.625 264.086 271.297 255.731 274.139 247.433C278.031 254.273 287.391 270.869 289.451 276.633C289.859 277.805 290.219 278.805 290.531 279.729L290.827 278.073C288.467 268.057 283.827 250.633 277.483 237.745C291.563 164.433 339.607 66.449 388.843 22.729H67.5988C46.0508 22.729 28.4428 40.353 28.4428 61.885V416.165C28.4428 437.697 46.0668 455.321 67.6028 455.321H279.191C277.591 435.828 277.194 416.255 278.003 396.713" fill="#0B7FCC"/>
<path d="M263.107 283.05C265.827 287.722 277.267 307.802 279.575 314.286C282.171 321.582 282.699 323.674 282.699 323.674C282.699 323.674 276.419 291.346 266.123 272.486C268.628 264.074 271.301 255.712 274.139 247.406C277.687 253.674 285.827 268.082 288.747 274.894L289.075 271.05C286.483 261.066 282.543 247.986 277.483 237.738C290.451 170.254 332.203 81.858 377.187 34.146H67.5954C60.242 34.1523 53.1915 37.076 47.9915 42.2753C42.7915 47.4746 39.8668 54.5246 39.8594 61.878V390.318C109.967 363.394 194.515 338.798 267.279 339.862C264.591 329.442 261.515 320.022 258.279 314.566C256.623 311.738 258.451 300.178 263.107 283.05Z" fill="url(#paint0_linear_27_535)"/>
<path d="M463.799 11.1211C441.799 -8.5029 415.143 -0.610897 388.863 22.7171C384.803 26.3467 380.913 30.1628 377.207 34.1531C332.207 81.8571 290.471 170.245 277.503 237.733C282.551 247.985 286.503 261.061 289.079 271.045C289.751 273.605 290.359 276.013 290.847 278.061C291.987 282.889 292.595 286.045 292.595 286.045C292.595 286.045 292.191 284.513 290.535 279.717C290.223 278.797 289.863 277.781 289.455 276.625C289.243 276.04 289.013 275.461 288.767 274.889C285.831 268.077 277.707 253.669 274.143 247.421C271.095 256.421 268.395 264.861 266.127 272.481C276.439 291.341 282.723 323.669 282.723 323.669C282.723 323.669 282.175 321.577 279.595 314.281C277.283 307.797 265.831 287.721 263.127 283.045C258.471 300.169 256.627 311.733 258.299 314.565C261.535 320.013 264.595 329.453 267.299 339.857C273.395 363.325 277.643 391.905 277.643 391.905C277.643 391.905 277.767 393.781 278.019 396.705C277.211 416.246 277.607 435.817 279.207 455.309C281.223 479.749 285.019 500.761 289.863 511.997L293.175 510.201C286.051 488.061 283.159 459.029 284.423 425.577C286.343 374.405 298.111 312.717 319.847 248.421C356.611 151.341 407.599 73.4691 454.255 36.2811C411.723 74.6891 354.163 199.017 336.927 245.061C317.647 296.625 303.975 344.997 295.723 391.357C309.923 347.905 355.911 329.237 355.911 329.237C355.911 329.237 378.459 301.405 404.819 261.685C389.019 265.297 363.099 271.453 354.427 275.093C341.627 280.469 338.159 282.293 338.159 282.293C338.159 282.293 379.643 257.045 415.239 245.609C464.175 168.529 517.487 59.0171 463.803 11.1251" fill="#003956"/>
<defs>
<linearGradient id="paint0_linear_27_535" x1="234.36" y1="41.4028" x2="234.36" y2="370.493" gradientUnits="userSpaceOnUse">
<stop stop-color="#95D7F4"/>
<stop offset="0.92" stop-color="#0F7FCC"/>
<stop offset="1" stop-color="#0F7FCC"/>
</linearGradient>
</defs>
</svg>
