<svg width="512" height="522" viewBox="0 0 512 522" fill="none" xmlns="http://www.w3.org/2000/svg">
<path d="M510.306 77.1919L269.794 514.722C264.828 523.756 252.07 523.809 247.03 514.82L1.74936 77.2326C-3.74265 67.4378 4.49136 55.5716 15.4034 57.5574L256.174 101.337C257.71 101.617 259.283 101.614 260.818 101.329L496.552 57.6185C507.428 55.6021 515.7 67.3767 510.306 77.1919V77.1919Z" fill="url(#paint0_linear_27_438)"/>
<path d="M370.864 0.128404L192.88 35.609C191.458 35.8924 190.168 36.6486 189.215 37.7587C188.261 38.8688 187.697 40.2698 187.612 41.7415L176.664 229.859C176.603 230.891 176.78 231.922 177.181 232.872C177.581 233.822 178.193 234.664 178.969 235.332C179.745 235.999 180.663 236.473 181.651 236.716C182.638 236.959 183.668 236.964 184.658 236.732L234.212 225.098C238.848 224.009 243.038 228.164 242.084 232.907L227.362 306.251C226.372 311.187 230.926 315.407 235.664 313.942L266.272 304.483C271.016 303.018 275.576 307.25 274.572 312.19L251.176 427.395C249.712 434.602 259.134 438.531 263.062 432.353L265.688 428.227L410.72 133.77C413.15 128.84 408.96 123.218 403.64 124.264L352.63 134.278C347.838 135.218 343.76 130.677 345.112 125.908L378.404 8.497C379.758 3.71553 375.664 -0.827891 370.866 0.128404H370.864Z" fill="url(#paint1_linear_27_438)"/>
<defs>
<linearGradient id="paint0_linear_27_438" x1="-4.23936" y1="92.8576" x2="260.96" y2="446.886" gradientUnits="userSpaceOnUse">
<stop stop-color="#41D1FF"/>
<stop offset="1" stop-color="#BD34FE"/>
</linearGradient>
<linearGradient id="paint1_linear_27_438" x1="278.488" y1="9.76209" x2="333.676" y2="381.885" gradientUnits="userSpaceOnUse">
<stop stop-color="#FFEA83"/>
<stop offset="0.083" stop-color="#FFDD35"/>
<stop offset="1" stop-color="#FFA800"/>
</linearGradient>
</defs>
</svg>
